Coordinates
version=1
nRows=9
nColumns=36
inDegrees=yes

Units are S.I. units (second, meters, Newtons, ...)
If the header above contains a line with 'inDegrees', this indicates whether rotational values are in degrees (yes) or radians (no).

endheader
time	pelvis_tilt	pelvis_list	pelvis_rotation	pelvis_tx	pelvis_ty	pelvis_tz	hip_flexion_r	hip_adduction_r	hip_rotation_r	knee_angle_r	knee_angle_r_beta	ankle_angle_r	subtalar_angle_r	mtp_angle_r	hip_flexion_l	hip_adduction_l	hip_rotation_l	knee_angle_l	knee_angle_l_beta	ankle_angle_l	subtalar_angle_l	mtp_angle_l	lumbar_extension	lumbar_bending	lumbar_rotation	arm_flex_r	arm_add_r	arm_rot_r	elbow_flex_r	pro_sup_r	arm_flex_l	arm_add_l	arm_rot_l	elbow_flex_l	pro_sup_l
      0.00000000	     -2.06109775	     -0.06348610	     -4.86771364	      0.86224738	      1.00225025	      0.07768192	     34.11576685	     -2.97308520	      5.79800139	     23.85090129	      0.41627676	      0.10171890	    -14.15316171	     -6.13086238	      6.57930399	      5.46539535	      7.75969478	     14.57155289	      0.25432158	     22.30959447	     -5.27317037	     -6.13086238	    -11.58909527	     -2.18461642	     -4.76157415	     39.08884656	      7.94003765	     59.91573380	    111.42202530	     83.58380116	     51.47834086	      3.59156333	     71.15886219	    120.89752709	     83.53322854
      0.01666670	     -2.84428780	     -0.66304734	     -3.33283942	      0.85594634	      0.99566689	      0.07693741	     34.35512065	     -2.85872677	      5.31802086	     19.28302055	      0.33655220	      0.26344998	    -10.07824688	     -6.42507720	     10.61318658	      5.22635595	      6.62740771	     20.01903454	      0.34939807	     21.73262309	     -6.82209151	     -6.42507720	    -13.33379009	     -1.99821002	     -3.28883414	     40.92511415	      4.29392555	     66.64349956	    118.61451469	     99.15298725	     55.07746731	      5.13174531	     71.09542051	    124.57140586	    106.00669194
      0.03333330	     -4.57270559	     -0.84550986	     -3.17345957	      0.86164207	      0.98169580	      0.07592572	     35.39536329	     -3.03977460	      5.21000188	     14.81938455	      0.25864705	      0.09520604	    -10.56085191	     -6.52811664	     14.78278286	      5.46187991	      8.06096589	     24.27338241	      0.42365044	     23.79281308	     -8.82574510	     -6.52811664	    -11.56684242	     -1.14481554	     -3.14674395	     40.20174357	      5.15382418	     66.64992381	    119.96246975	    105.16421199	     55.35662057	      4.69501606	     71.31014536	    125.36226655	    110.94241471
      0.05000000	     -4.85282298	     -1.14458341	     -2.80585756	      0.85585622	      0.97520283	      0.07194615	     36.58357012	     -3.46474241	      3.24156673	     15.55085842	      0.27141368	      3.05745687	     -8.33182098	     -6.69837494	     18.31304277	      5.82848874	      8.07805663	     29.60149111	      0.51664348	     27.35496871	     -8.40010054	     -6.69837494	    -11.85482836	     -0.49558510	     -3.31553101	     40.90298767	      5.41346485	     67.01693476	    120.16498023	    105.94184447	     56.88786640	      4.26925259	     70.63382921	    125.14602979	    110.85361518
      0.06666670	     -4.85664697	     -1.19366224	     -2.80585207	      0.84844159	      0.97136336	      0.07402282	     38.72422600	     -3.68927700	      1.82172137	     18.44546664	      0.32193412	      4.74367821	     -6.85712821	     -6.72098961	     21.57983643	      6.49685030	      7.91676616	     34.57832973	      0.60350570	     30.20910010	     -8.64173033	     -6.72098961	    -13.12229910	     -0.36532317	     -3.22621616	     42.41351663	      5.73978434	     67.69433773	    120.15948658	    106.46990389	     59.17577119	      4.06516630	     70.25162167	    124.73499845	    110.59577991
      0.08333330	     -4.52350148	     -0.79746355	     -2.55771590	      0.84756919	      0.96881436	      0.07428763	     40.35920779	     -4.38228248	      0.97318398	     21.49871847	      0.37522342	      5.05956485	     -6.09149116	     -6.74002353	     23.80313694	      7.58896016	      7.75232993	     38.22253112	      0.66710902	     31.82951803	     -9.07996026	     -6.74002353	    -15.12627318	     -0.73931640	     -3.05021771	     43.62189625	      5.54637553	     68.30951356	    119.88435356	    106.87842328	     60.79722132	      3.84169281	     71.06513443	    124.31540182	    110.33043416
      0.10000000	     -4.31886156	     -0.04405286	     -2.30179888	      0.84023980	      0.96028082	      0.07037416	     42.38948812	     -5.37082930	      0.55904355	     24.39913222	      0.42584519	      4.00160185	     -6.01022191	     -6.75900661	     25.93779819	      8.90689120	      7.41024218	     41.05425339	      0.71653189	     32.66131750	     -9.36529242	     -6.75900661	    -17.12087363	     -1.40989965	     -3.14603787	     45.17997707	      5.54673652	     68.60850224	    120.15952800	    106.92575717	     63.25736294	      3.87669274	     71.69064228	    124.07684468	    109.77407419
      0.11666670	     -3.99924317	      0.93466377	     -1.93676120	      0.82700459	      0.95457700	      0.06827067	     44.19819692	     -6.54793077	      0.57576583	     26.45478724	      0.46172314	      2.20031966	     -6.18813904	     -6.92876909	     27.86263387	     10.41988413	      7.00417262	     43.33031223	      0.75625661	     32.95137397	     -9.61421149	     -6.92876909	    -19.52283437	     -2.39556642	     -3.17235548	     47.20982318	      5.44605852	     67.71860502	    119.98947066	    105.66957146	     66.58958319	      4.67824558	     72.05027992	    122.92882879	    108.20679581
      0.13333330	     -3.73422300	      1.95799560	     -1.48533923	      0.82521977	      0.95168628	      0.06877049	     45.45448292	     -7.69599407	      0.77616005	     27.41919947	      0.47855531	      0.41533565	     -6.36198801	     -6.94044140	     29.27030199	     11.86330690	      6.73324079	     44.96834121	      0.78484561	     32.93904769	     -9.89010839	     -6.94044140	    -21.46537741	     -3.27578203	     -3.73907277	     48.57403205	      6.03758511	     67.39024061	    119.65437188	    105.96639915	     68.81400915	      4.63801790	     72.17764709	    122.46895387	    107.95390664
